<svg data-v-3a32560e="" xmlns="http://www.w3.org/2000/svg" xmlns:xlink="http://www.w3.org/1999/xlink" width="75.505" height="56.629" viewBox="0 0 75.505 56.629" style="fill:#7455DF"><defs data-v-3a32560e=""><linearGradient data-v-3a32560e="" id="b" x1="-0.98" x2="2.208" y2="0.837" gradientUnits="objectBoundingBox"><stop data-v-3a32560e="" offset="0" stop-color="#527ffc"></stop><stop data-v-3a32560e="" offset="1" stop-color="#bb63ff"></stop></linearGradient></defs><g data-v-3a32560e="" transform="translate(0 -65.225)"><g data-v-3a32560e="" transform="translate(0 65.225)"><path data-v-3a32560e="" d="M210.5,65.989l-2.675-.7a1.253,1.253,0,0,0-1.013.1,1.354,1.354,0,0,0-.669.8L190.058,119.44a1.188,1.188,0,0,0,.108,1.01,1.391,1.391,0,0,0,.841.639l2.674.7a1.25,1.25,0,0,0,1.014-.1,1.355,1.355,0,0,0,.668-.8L211.45,67.639a1.189,1.189,0,0,0-.108-1.011A1.39,1.39,0,0,0,210.5,65.989Z" transform="translate(-163.001 -65.225)" class="b"></path><path data-v-3a32560e="" d="M25.1,122.13a1.247,1.247,0,0,0-.431-.932l-2.157-2.027a1.416,1.416,0,0,0-1.984,0L.431,138.059a1.223,1.223,0,0,0,0,1.865l20.1,18.889a1.417,1.417,0,0,0,1.984,0l2.157-2.026a1.223,1.223,0,0,0,0-1.865L7.72,138.991l16.95-15.929A1.245,1.245,0,0,0,25.1,122.13Z" transform="translate(0 -110.677)" class="b"></path><path data-v-3a32560e="" d="M380.981,138.056l-20.1-18.889a1.416,1.416,0,0,0-1.984,0l-2.156,2.027a1.224,1.224,0,0,0,0,1.865l16.95,15.93-16.95,15.931a1.224,1.224,0,0,0,0,1.865l2.156,2.026a1.417,1.417,0,0,0,1.984,0l20.1-18.888a1.224,1.224,0,0,0,0-1.865Z" transform="translate(-305.906 -110.675)" class="b"></path></g></g></svg>